<?xml version="1.0" encoding="utf-8"?>
<!-- Generator: Adobe Illustrator 19.0.0, SVG Export Plug-In . SVG Version: 6.00 Build 0)  -->
<svg version="1.1" id="Layer_1" xmlns="http://www.w3.org/2000/svg" xmlns:xlink="http://www.w3.org/1999/xlink" x="0px" y="0px"
	 viewBox="0 0 827.8 276.4" style="enable-background:new 0 0 827.8 276.4;" xml:space="preserve">
<style type="text/css">
	.st0{clip-path:url(#SVGID_2_);fill:#76D0EF;}
	.st1{clip-path:url(#SVGID_2_);fill:#FFFFFF;}
</style>
<g>
	<defs>
		<rect id="SVGID_1_" width="827.8" height="276.4"/>
	</defs>
	<clipPath id="SVGID_2_">
		<use xlink:href="#SVGID_1_"  style="overflow:visible;"/>
	</clipPath>
	<path class="st0" d="M124.9,38.8V113h-22V44.2c0-12.5-4.9-18.7-14.7-18.7c-4.1,0-7.5,1.4-10.4,4.3c-2.9,2.9-4.3,6.3-4.3,10.3V113
		H51.1V40.2c0-4.2-1.4-7.6-4.1-10.5c-2.8-2.8-6.3-4.2-10.6-4.2c-9.2,0-13.7,4.2-13.5,12.7l0.7,74.7H0V5.4l22.9,0.2v5.6
		c3.4-3.9,9.8-5.8,19.2-5.8c3.6,0,7.8,1.4,12.5,4.2c4.8,2.8,7.9,5.7,9.4,8.8c2.5-3.2,6.3-6.1,11.4-8.9c5.1-2.7,9.5-4.1,13.4-4.1
		c9.4,0,17.7,3.3,25.1,9.8C121.2,21.7,124.9,29.6,124.9,38.8"/>
	<polygon class="st0" points="202.2,5.6 166.8,157.8 147,157.6 156.4,112.6 127.6,5.6 150.9,5.6 166.6,78.2 178.9,5.6 	"/>
	<path class="st1" d="M56.9,257.4c5.2,0.1,9.3,4.2,9.3,9.5c0.1,5.4-4.4,9.6-9.9,9.4c-5.2-0.2-9.2-4.5-9-9.8
		C47.4,261.4,51.8,257.3,56.9,257.4"/>
	<path class="st1" d="M90.5,276.4c-5.2-0.1-9.3-4.4-9.3-9.5c0-5.4,4.6-9.8,10-9.5c5.2,0.3,9.1,4.5,9,9.9
		C100,272.4,95.7,276.5,90.5,276.4"/>
	<path class="st1" d="M66.3,191.3c1.6,2.1,3.1,4.2,4.6,6.3l1.8,2.4h1.8l1.2-1.6c1.1-1.5,2.2-3,3.4-4.5c2.1-2.8,4.1-5.5,6.2-8.3
		c2.3-3,4.6-6.1,6.8-9.1c0,0-0.1,0-0.1,0c-12.3,0-24.5,0.1-36.8,0.1c1.8,2.5,3.7,4.9,5.5,7.3C62.6,186.3,64.5,188.8,66.3,191.3"/>
	<path class="st1" d="M158.6,161.2c-3.6,0.1-7.2,0.1-10.9,0c-1.9,0-3.4,0.5-4.8,1.8c-3.7,3.5-7.6,6.8-12.3,9
		c-5,2.3-10.3,3.5-15.7,3.8c-6.6,0.3-13.3,0.6-19.9,0.7c-2.6,3.5-5.3,7.1-7.9,10.5c-2.1,2.7-4.1,5.5-6.2,8.2c-1.1,1.5-2.2,3-3.3,4.5
		l-1.5,2.1c-0.2,0.3-0.5,0.4-0.9,0.4h-2.9c-0.3,0-0.7-0.2-0.9-0.4l-2.1-2.9c-1.5-2.1-3.1-4.2-4.6-6.3c-1.9-2.5-3.7-5-5.6-7.5
		c-2.1-2.8-4.3-5.7-6.4-8.6c-11.4,0-22.8,0-34.2,0c-5.7,0-10.5,1.9-13.8,6.6c-1.4,2.1-2.5,3.8-3.2,7c0,1.4-1.3,7.2,4.3,13
		c1.5,1.4,3.3,2.7,5.1,3.7c1.2,0.6,1.7,1.2,1.7,2.6c0,3.1,2,5.2,4.8,5.1c2.6,0,4.6-2,4.7-4.6c0.1-2.2,0.1-4.4,0-6.5
		c-0.1-2.6-1.9-4.3-4.6-4.6c-3.8-0.4-5.9-2.3-6.4-5.5c-0.5-3.2,1.9-6.6,5.1-6.8c4.6-0.2,9.2-0.1,14-0.1c0.1,17.9,8,31.1,24,39.6
		c-0.4,0.4-0.7,0.7-1.1,1.1c-4.4,3.6-7.5,8-9.4,13.4c-0.6,1.7-1.3,3.4-1.9,5.1c-1.2,3.6,1,6.6,4.7,6.6c17,0,34,0,50.9,0
		c3.6,0,5.9-2.9,4.9-6.2c-1.8-5.5-3.7-10.9-7.6-15.3c-0.8-0.9-1.7-1.8-2.7-2.9c0.8-0.2,1.4-0.4,2.1-0.6c19.6-4.7,35.8-15,49.6-29.4
		c8.1-8.5,15-17.9,20.3-28.4c0.4-0.7,0.7-1.4,1-2.1v-2.2C163.7,162.1,161.6,161.1,158.6,161.2"/>
	<path class="st0" d="M72.2,201.1c-2.3-3-4.5-6.1-6.8-9.1c-6-8.1-12.1-16.1-18.1-24.3c-3.2-4.4-5-9.5-5.5-15
		c-0.7-7.5,1.1-14.4,5.2-20.7c4-6,9.5-10.2,16.4-12.6c4.9-1.7,9.9-2.1,15.1-1.3c6.8,1.1,12.6,4,17.5,8.8c4.4,4.3,7.3,9.5,8.7,15.5
		c2,9.1,0.6,17.7-4.8,25.2c-6.5,9.1-13.3,17.9-19.9,26.8c-1.6,2.2-3.2,4.4-4.9,6.6H72.2z M84.3,149.7c0-5.8-4.7-10.6-10.5-10.6
		c-5.8,0-10.6,4.7-10.6,10.5c-0.1,5.8,4.8,10.6,10.6,10.6C79.5,160.3,84.3,155.5,84.3,149.7"/>
	<path class="st1" d="M286.7,0h-10.6c-16.8,0-31.2,6-43.1,17.9c-11.9,11.9-17.9,26.3-17.9,43.1v151.2c0,16.8,6,31.2,17.9,43.1
		c11.9,11.9,26.3,17.9,43.1,17.9h10.6c16.8,0,31.1-5.9,42.9-17.8c11.8-11.9,17.8-26.2,18.1-43v-55.2H279v38.7h28.1v3.6
		c0,11.6-1.2,19.9-3.7,25c-3.8,7.3-10.9,10.9-21.2,10.9c-17.6,0-26.5-11.3-26.5-34.1V70.7c0-22.7,8.2-34.1,24.6-34.1
		c17.8,0,26.7,14,26.7,42.1v12.1V103h40.7V61.1c0-16.8-6-31.2-17.9-43.1C317.9,6,303.5,0,286.7,0"/>
	<polygon class="st1" points="360.6,269.3 402.9,269.3 402.9,5.2 360.6,4.8 	"/>
	<polygon class="st1" points="640.3,143.2 596.6,4.8 553.2,4.8 554.5,269 593.5,269 593.5,163 636.3,269 679.4,269 679.4,4.8 
		640.3,4.8 	"/>
	<path class="st1" d="M827.8,4.9h-42.3l-26.1,118l-24.8-118h-42.3l44.8,186l0.4,17.1v61.1h42.3c0-3-0.2-11.6-0.6-25.8
		c-0.4-14.2-0.6-25-0.6-32.4c0-11.1,0.4-18,1.2-20.8L827.8,4.9z"/>
	<polygon class="st1" points="502.1,142.8 458.3,4.4 415,4.4 416.2,268.6 455.3,268.6 455.3,162.6 498,268.6 541.1,268.6 541.1,4.4 
		502.1,4.4 	"/>
</g>
</svg>
